<?xml version="1.0" standalone="no"?><!DOCTYPE svg PUBLIC "-//W3C//DTD SVG 1.1//EN" "http://www.w3.org/Graphics/SVG/1.1/DTD/svg11.dtd"><svg t="1595489089905" class="icon" viewBox="0 0 1024 1024" version="1.1" xmlns="http://www.w3.org/2000/svg" p-id="17283" xmlns:xlink="http://www.w3.org/1999/xlink" width="600" height="600"><defs><style type="text/css"></style></defs><path d="M680.96 486.4l102.4 0 204.8-174.08c-10.24-20.48-20.48-40.96-30.72-61.44L680.96 486.4 680.96 486.4 680.96 486.4zM537.6 0l0 81.92 81.92-71.68C593.92 5.12 563.2 0 537.6 0L537.6 0zM962.56 486.4l56.32-51.2c-5.12-25.6-10.24-46.08-15.36-71.68l-143.36 122.88L962.56 486.4 962.56 486.4zM793.6 81.92l-256 220.16 0 87.04 307.2-266.24C829.44 107.52 814.08 97.28 793.6 81.92L793.6 81.92zM680.96 25.6l-143.36 122.88 0 87.04 209.92-179.2C721.92 46.08 701.44 35.84 680.96 25.6L680.96 25.6zM926.72 209.92c-10.24-15.36-25.6-35.84-40.96-51.2l-348.16 296.96 0 30.72 66.56 0L926.72 209.92 926.72 209.92zM486.4 0C215.04 10.24 0 235.52 0 512c0 117.76 40.96 230.4 107.52 317.44l378.88-327.68L486.4 0 486.4 0zM522.24 537.6l-378.88 327.68C235.52 962.56 363.52 1024 512 1024c276.48 0 496.64-215.04 512-486.4L522.24 537.6 522.24 537.6zM522.24 537.6" p-id="17284"></path></svg>