<?xml version="1.0" standalone="no"?><!DOCTYPE svg PUBLIC "-//W3C//DTD SVG 1.1//EN" "http://www.w3.org/Graphics/SVG/1.1/DTD/svg11.dtd"><svg t="1595488194145" class="icon" viewBox="0 0 1338 1024" version="1.1" xmlns="http://www.w3.org/2000/svg" p-id="3996" xmlns:xlink="http://www.w3.org/1999/xlink" width="783.984375" height="600"><defs><style type="text/css"></style></defs><path d="M1295.059081 1024H906.54384c-18.81034-3.295498-32.922842-13.827652-39.231908-29.06933-6.894836-16.660086-3.796542-59.720673-3.796543-89.767258V314.772633c0-17.060337-1.057598-33.235447 2.534437-42.961255 1.582014-4.356017 6.536947-11.607281 11.379401-16.442431 15.805535-15.785084 35.579983-13.90069 67.077113-13.90069H1207.738613c23.828086 0 56.283481-1.263566 79.714237 0 8.526516 0.460143 17.46497 1.454927 22.79386 3.783395 1.527966 0.671954 2.144411 2.714111 3.784856 3.79216 1.787983 1.168616 5.017746 1.453466 6.344126 2.54174 3.258979 2.705347 5.263155 6.82618 7.571172 10.108531 1.13794 1.625837 2.8821 2.172165 3.818454 3.790699 3.62125 6.376262 3.481016 12.628359 6.301763 20.224365v692.784936c-3.949923 25.567863-18.524029 40.511544-43.00946 45.505917z m-215.155401-36.644884c4.044873 6.490203 9.787161 11.912582 17.708919 12.600604 3.574505 0.338899 9.31095 0.020451 12.656114-1.260644 3.634397-1.386271 11.125227-8.752936 12.644428-12.618134 4.193872-10.612496 0.39879-20.804291-2.527132-25.291778-3.028177-4.579515-5.702847-6.141078-8.843504-7.563869-5.72622-2.649837-8.582026-3.619789-17.733752-1.282556-17.088091 4.350174-21.461638 23.270071-13.905073 35.416377z m139.182197-688.992776c-1.678425-7.354979-8.228519-8.213912-20.231669-8.859573-28.531766-1.513358-61.751144 0-88.604485 0-46.253832 0-82.499926-2.67321-118.972439 0-1.303007 0.102254-0.715777 1.066362-1.260645 1.270871-6.198049 2.473084-11.677398 9.084531-7.552183 17.695771 3.345164 7.059903 12.282157 6.241872 25.318072 6.31345 57.887407 0.321369 106.252051 0 161.965831 0 10.166961 0 23.32412 0.994785 32.912617 0 6.935738-0.696787 8.637535 0.214733 12.640045-3.79216 2.892325-2.867492 5.337655-6.006688 3.784856-12.628359z m72.145986 64.466716H911.570351c-1.468074 0.214733-1.354134 1.986648-1.260645 3.79362v560.056422h380.922157V362.829056z m-281.341444-151.686391h-63.284953c-0.657347-22.349786 2.27588-92.148314-3.784855-107.480559-5.97309-15.121894-23.30513-32.765078-40.483789-37.921598-12.358117-3.710357-29.63903-2.532976-48.110471-2.532976H155.659686c-17.380245 0-33.92493-1.178842-46.827914 2.531515-19.885466 5.702847-35.730442 22.56598-41.753199 37.923059-5.416536 13.833495-3.799464 35.087703-3.799463 58.150345v371.669637c0 21.765478-2.760856 48.480046 2.534436 63.229444 6.57931 18.296148 23.113769 35.173889 40.496936 40.439966 21.373991 6.490203 56.336068 2.546123 83.526848 2.546123h645.980393v159.272171H91.131618c-19.241267 0-38.770305 1.466613-51.886562-3.783395-7.153392-2.880639-15.761712-9.246676-21.508383-15.192012-10.989375-11.319509-13.811583-21.908633-17.733751-39.169095V59.424137C5.505643 25.307846 24.89883 5.083481 59.473803 0h890.941352c25.252337 3.996668 45.247361 16.759418 54.416617 39.191007 6.548633 15.939926 5.058648 36.212496 5.058647 58.143042v113.808616zM292.320593 983.545427c0.876462-0.680719 2.874796-0.484976 3.786317-1.265028 3.070539-2.642534 5.266077-6.408399 8.869798-8.866875 0.943658-0.622288 2.744787-0.482054 3.784855-1.259184 1.066362-0.781512 1.485603-3.048628 2.524212-3.786317 1.231429-0.837021 2.709729-0.439692 3.805306-1.256263 19.735007-14.660291 42.556622-28.23669 64.54998-39.172017v-92.301694c-0.089107-1.802591-0.182596-3.568662 1.284017-3.781935h249.309672v94.822984c4.174882 4.601427 10.105609 6.006688 15.187629 8.834739 7.933444 4.41883 16.72582 9.606026 25.313689 15.164257 2.366448 1.538191 6.396713 3.987903 10.111453 6.325136 3.210773 1.969118 5.857689 3.463486 8.844964 6.325135 1.324919 1.23289 6.259401 4.17196 8.866876 6.291538 1.99103 1.624377 3.828679 2.760856 6.313449 5.048422 1.51774 1.453466 4.028805 2.90109 6.336822 5.083481 5.413615 5.06303 24.077877 15.792388 22.79386 27.805763-2.40881 22.624411-80.219663 15.167178-107.578431 15.167179H322.690009c-31.897381 0-60.436451-5.989158-39.23337-30.337279 2.050922-2.35184 5.808023-6.500428 8.863954-8.842042z m-127.227252-820.01511h677.797432v381.084302h-677.797432v-381.085763zM950.964405 401.71184h299.457917v484.975749H950.964405V401.71184z" p-id="3997"></path></svg>