<?xml version="1.0" standalone="no"?><!DOCTYPE svg PUBLIC "-//W3C//DTD SVG 1.1//EN" "http://www.w3.org/Graphics/SVG/1.1/DTD/svg11.dtd"><svg t="1595489153471" class="icon" viewBox="0 0 1024 1024" version="1.1" xmlns="http://www.w3.org/2000/svg" p-id="21584" xmlns:xlink="http://www.w3.org/1999/xlink" width="600" height="600"><defs><style type="text/css"></style></defs><path d="M573.936 38.152a79.264 79.264 0 0 0-106.496 0L36.848 447.016a39.72 39.72 0 0 0 53.192 59.008l6.848-6.504v426.744a79.44 79.44 0 0 0 79.448 79.544h231.2v-239.2a55.936 55.936 0 0 1 56-56h108.8a55.936 55.936 0 0 1 55.96 56v239.2h236.68a79.456 79.456 0 0 0 79.472-79.544V504.736c17.648 16 42.688 14.76 57.368-1.6a39.736 39.736 0 0 0-2.872-56.112l-424.952-408.8z m0 0" p-id="21585"></path></svg>