<?xml version="1.0" standalone="no"?><!DOCTYPE svg PUBLIC "-//W3C//DTD SVG 1.1//EN" "http://www.w3.org/Graphics/SVG/1.1/DTD/svg11.dtd"><svg t="1595488734130" class="icon" viewBox="0 0 1024 1024" version="1.1" xmlns="http://www.w3.org/2000/svg" p-id="11342" xmlns:xlink="http://www.w3.org/1999/xlink" width="600" height="600"><defs><style type="text/css"></style></defs><path d="M9.911083 927.094597a2.957172 2.957172 0 0 1-2.957173-2.843435v-334.729171a2.843435 2.843435 0 0 1 1.023637-2.21788l209.902374-175.155597a2.957172 2.957172 0 0 1 3.582728 0l77.00022 52.717285a2.900304 2.900304 0 0 1 1.251112 2.388486v456.940008a2.957172 2.957172 0 0 1-2.957173 2.900304z m361.91241 0a2.957172 2.957172 0 0 1-2.957173-2.900304v-415.141513a2.900304 2.900304 0 0 1 1.421718-2.502223 3.014041 3.014041 0 0 1 2.900304 0l145.242661 77.398301a3.014041 3.014041 0 0 0 3.298384-0.341212L656.84942 472.144993a3.014041 3.014041 0 0 1 3.127778-0.398081 2.900304 2.900304 0 0 1 1.706061 2.61596v449.262734a2.900304 2.900304 0 0 1-2.957172 2.900304z m358.955237-511.818305a2.786566 2.786566 0 0 1 0.853031-2.104141l164.634888-155.024078a3.014041 3.014041 0 0 1 4.37889 0.341212L1023.083851 416.413666a2.843435 2.843435 0 0 1 0.568687 1.706061v506.131435a2.957172 2.957172 0 0 1-2.957173 2.900304H733.622165a2.957172 2.957172 0 0 1-2.957172-2.900304z m-646.824599 48.054052a37.590211 37.590211 0 0 1-36.452837 6.255557 36.452837 36.452837 0 0 1-23.771117-27.808794 35.88415 35.88415 0 0 1 12.738589-34.12122L224.761033 253.200496a2.957172 2.957172 0 0 1 3.52586 0l278.656632 166.28408a3.014041 3.014041 0 0 0 3.52586-0.398081l295.717242-272.969762a2.957172 2.957172 0 0 0 0-4.322021l-57.153044-56.868701a2.843435 2.843435 0 0 1-0.739293-2.729697 2.900304 2.900304 0 0 1 1.933536-2.047274L1003.066068 0.134779a3.014041 3.014041 0 0 1 3.014041 0.739293 2.843435 2.843435 0 0 1 0.625556 3.014041l-88.089617 243.398038a2.900304 2.900304 0 0 1-2.161011 1.876667 3.014041 3.014041 0 0 1-2.729697-0.796161l-51.181831-51.181831a2.957172 2.957172 0 0 0-4.322021 0l-1.251111 1.251111-336.776445 311.18553a2.957172 2.957172 0 0 1-3.525859 0.341212L235.224874 341.972538a3.014041 3.014041 0 0 0-3.525859 0z m901.653246 487.819713a37.419605 37.419605 0 0 1 26.614552 11.37374 35.88415 35.88415 0 0 1 10.350104 26.443946 37.305868 37.305868 0 0 1-37.931424 35.03112H36.980584a37.362736 37.362736 0 0 1-26.557683-11.37374A35.941019 35.941019 0 0 1 0.015929 986.238045a37.362736 37.362736 0 0 1 37.988292-35.031119z" p-id="11343"></path></svg>