<?xml version="1.0" standalone="no"?><!DOCTYPE svg PUBLIC "-//W3C//DTD SVG 1.1//EN" "http://www.w3.org/Graphics/SVG/1.1/DTD/svg11.dtd"><svg t="1595489256832" class="icon" viewBox="0 0 1024 1024" version="1.1" xmlns="http://www.w3.org/2000/svg" p-id="26548" xmlns:xlink="http://www.w3.org/1999/xlink" width="600" height="600"><defs><style type="text/css"></style></defs><path d="M867.161946 243.822703h-101.459027C765.702919 109.235892 652.038919 0 512 0S258.297081 109.235892 258.297081 243.822703H156.838054c-55.904865 0.19373-101.043892 43.810595-100.98854 97.501405L55.351351 926.470919C55.351351 980.106378 101.016216 1024 156.838054 1024h710.323892C922.983784 1024 968.648649 980.106378 968.648649 926.470919V341.324108c0-53.635459-45.664865-97.501405-101.486703-97.501405zM512 97.529081c84.217081 0 152.216216 65.314595 152.216216 146.293622H359.783784c0-80.951351 67.999135-146.293622 152.216216-146.293622zM512 719.567568a124.540541 124.540541 0 1 1 0 249.081081 124.540541 124.540541 0 0 1 0-249.081081zM359.783784 341.324108c0 80.951351 67.999135 146.293622 152.216216 146.293622s152.216216-65.314595 152.216216-146.293622h101.486703c0 134.586811-113.664 243.822703-253.702919 243.822703s-253.702919-109.235892-253.702919-243.822703H359.783784z" p-id="26549"></path><path d="M442.810811 830.27027h138.378378v27.675676h-138.378378z" p-id="26550"></path><path d="M525.837838 774.918919v138.378378h-27.675676v-138.378378z" p-id="26551"></path></svg>