<?xml version="1.0" standalone="no"?><!DOCTYPE svg PUBLIC "-//W3C//DTD SVG 1.1//EN" "http://www.w3.org/Graphics/SVG/1.1/DTD/svg11.dtd"><svg t="1597046510835" class="icon" viewBox="0 0 1165 1024" version="1.1" xmlns="http://www.w3.org/2000/svg" p-id="2082" xmlns:xlink="http://www.w3.org/1999/xlink" width="682.6171875" height="600"><defs><style type="text/css"></style></defs><path d="M946.740966 516.590345l167.300413-74.575448a36.369655 36.369655 0 0 1 51.2 33.403586v408.152276a36.475586 36.475586 0 0 1-51.2 33.474207l-167.300413-74.610759v108.402759A72.986483 72.986483 0 0 1 873.931034 1024H72.845241A72.986483 72.986483 0 0 1 0 950.872276V365.709241c0-40.395034 32.591448-73.127724 72.845241-73.127724H873.931034c40.253793 0 72.845241 32.73269 72.845242 73.127724v150.845793zM564.400552 256a127.717517 127.717517 0 0 1-127.823449-127.576276A127.717517 127.717517 0 0 1 563.623724 0h0.776828a127.717517 127.717517 0 0 1 126.905379 128.564966 127.717517 127.717517 0 0 1-126.905379 127.435034z m-254.870069 0a91.241931 91.241931 0 0 1-91.030069-91.453793c0-50.493793 40.748138-91.418483 91.030069-91.418483a91.241931 91.241931 0 0 1 91.030069 91.453793c0 50.493793-40.748138 91.418483-91.030069 91.418483z m54.589793 548.581517a36.510897 36.510897 0 0 0 54.483862 31.744l254.905379-146.290758a36.652138 36.652138 0 0 0 0-63.488l-254.905379-146.290759a36.334345 36.334345 0 0 0-54.483862 31.744v292.581517z m72.845241-229.552551l145.090207 83.261793L436.965517 741.517241v-166.523586z" p-id="2083"></path></svg>