<?xml version="1.0" standalone="no"?><!DOCTYPE svg PUBLIC "-//W3C//DTD SVG 1.1//EN" "http://www.w3.org/Graphics/SVG/1.1/DTD/svg11.dtd"><svg t="1595488336531" class="icon" viewBox="0 0 1024 1024" version="1.1" xmlns="http://www.w3.org/2000/svg" p-id="5527" xmlns:xlink="http://www.w3.org/1999/xlink" width="600" height="600"><defs><style type="text/css"></style></defs><path d="M801.792 491.52q31.744 0 60.416 12.288t50.176 33.792 33.792 50.176 12.288 60.416q0 32.768-12.288 60.928t-33.792 49.664-50.176 33.792-60.416 12.288q-29.696 0-55.808-10.752t-46.592-28.16l0 128q0 27.648-19.456 47.104t-47.104 19.456l-504.832 0q-27.648 0-47.616-19.456t-19.968-47.104l0-113.664q5.12-21.504 18.432-31.744t38.912 5.12q12.288 7.168 18.432 8.192 26.624 13.312 54.272 13.312t51.712-10.24 41.984-28.16 28.16-41.472 10.24-51.2-10.24-51.712-28.16-41.984-41.984-28.16-51.712-10.24q-26.624 0-52.224 11.264-6.144 2.048-10.24 4.096-12.288 6.144-24.064 11.264t-20.992 4.096-15.36-10.24-7.168-30.72l0-107.52q0-27.648 19.968-47.616t47.616-19.968l159.744 0q-16.384-20.48-26.112-45.568t-9.728-53.76q0-33.792 12.8-62.976t34.304-50.688 50.688-34.304 61.952-12.8 61.952 12.8 50.688 34.304 34.304 50.688 12.8 62.976q0 57.344-35.84 99.328l97.28 0q27.648 0 47.104 19.968t19.456 47.616l0 136.192q20.48-17.408 46.592-28.16t55.808-10.752z" p-id="5528"></path></svg>