<?xml version="1.0" standalone="no"?><!DOCTYPE svg PUBLIC "-//W3C//DTD SVG 1.1//EN" "http://www.w3.org/Graphics/SVG/1.1/DTD/svg11.dtd"><svg t="1595488277337" class="icon" viewBox="0 0 1024 1024" version="1.1" xmlns="http://www.w3.org/2000/svg" p-id="4773" xmlns:xlink="http://www.w3.org/1999/xlink" width="600" height="600"><defs><style type="text/css"></style></defs><path d="M1017.96864 379.97568L877.2096 983.10656c-5.01248 21.03296-26.05568 34.02752-46.592 29.05088L230.00064 870.4c-20.54144-4.52608-33.56672-25.55392-29.056-46.60736l11.01824-46.6176 534.46656 92.7232c4.50048 0.50176 8.55552 0.95232 13.02528 0.95232 20.52608 0 39.49568-8.50944 53.64224-22.00064l14.97088 3.47648 106.24512-452.31616-28.08832-6.50752 13.02528-76.64128 70.12864 16.52736c20.5824 5.00736 33.56672 26.05056 28.59008 46.58688M283.8528 364.37504c34.52928 0 62.85824-27.88864 62.85824-62.85824 0-34.52928-28.32896-62.85824-62.85824-62.85824-34.52928 0-62.4128 28.32896-62.4128 62.85824 0 34.96448 27.88352 62.85824 62.4128 62.85824" p-id="4774"></path><path d="M672.78848 11.32032H55.66976c-20.99712 0-38.53312 17.536-38.53312 38.53312v619.65312c0 21.54496 17.536 39.08096 38.53312 39.08096h617.15456c21.03808 0 38.53824-17.536 38.5024-39.03488V49.8944c0-21.00224-17.49504-38.57408-38.53824-38.57408z m-38.61504 482.32448L508.98432 325.37088s-7.552-13.52704-33.06496-13.52704c-29.056 0-38.0672 12.98944-38.0672 12.98944L328.1408 495.65184s-6.51264 11.56096-21.03808 11.56096c-14.99136 0-22.53824-11.56096-22.53824-11.56096L226.48832 429.56288s-14.52544-20.03968-34.05824-20.03968c-19.00032 0-35.072 22.04672-35.072 22.04672L94.24384 510.10048V88.92416h539.9296v404.72064z" p-id="4775"></path><path d="M285.184 719.81056l431.5392 74.39872c18.59072 3.53792 36.3008-9.2672 39.3984-27.85792l92.5184-539.61728c3.12832-18.59072-9.2672-36.29568-27.85792-39.3984l-106.68032-18.59072v69.49888l61.49632 10.624-61.49632 359.8592v42.53184c0 38.03648-30.55104 68.5824-68.1728 68.5824H285.184v-0.03072z" p-id="4776"></path></svg>