<?xml version="1.0" standalone="no"?><!DOCTYPE svg PUBLIC "-//W3C//DTD SVG 1.1//EN" "http://www.w3.org/Graphics/SVG/1.1/DTD/svg11.dtd"><svg t="1595488864456" class="icon" viewBox="0 0 1024 1024" version="1.1" xmlns="http://www.w3.org/2000/svg" p-id="15118" xmlns:xlink="http://www.w3.org/1999/xlink" width="600" height="600"><defs><style type="text/css"></style></defs><path d="M1012.55 612.027a512.87 512.87 0 0 0 0.58-197.102l-102.663-36.53a419.56 419.56 0 0 0-21.74-52.089l46.902-98.965A513.173 513.173 0 0 0 796.66 88.288l-100.179 47.62a414.097 414.097 0 0 0-50.241-20.527L609.075 10.843a514.331 514.331 0 0 0-197.102 0.58l-37.688 105.972a410.759 410.759 0 0 0-46.903 19.755L226.237 89.06A512.786 512.786 0 0 0 86.715 229.77l48.476 101.807a412.607 412.607 0 0 0-18.375 44.75L11.036 413.85a514.994 514.994 0 0 0 0.58 199.2l105.227 37.411a416.222 416.222 0 0 0 18.348 44.53l-47.73 100.4a513.173 513.173 0 0 0 141.204 141.178l99.158-47.152a412.58 412.58 0 0 0 46.324 19.479l36.805 103.49a513.559 513.559 0 0 0 199.2 0.579l36.28-102.083a412.883 412.883 0 0 0 49.662-20.25l98.192 46.654a513.173 513.173 0 0 0 140.709-139.522l-46.406-97.53a417.711 417.711 0 0 0 21.658-51.87z m-499.377 52.89a151.745 151.745 0 1 1 151.744-151.744 151.745 151.745 0 0 1-151.744 151.744z" fill="" p-id="15119"></path></svg>