<?xml version="1.0" standalone="no"?><!DOCTYPE svg PUBLIC "-//W3C//DTD SVG 1.1//EN" "http://www.w3.org/Graphics/SVG/1.1/DTD/svg11.dtd"><svg t="1595488847275" class="icon" viewBox="0 0 1024 1024" version="1.1" xmlns="http://www.w3.org/2000/svg" p-id="14346" xmlns:xlink="http://www.w3.org/1999/xlink" width="600" height="600"><defs><style type="text/css"></style></defs><path d="M950.840889 658.280296V73.197037h-292.560593V0H292.560593L73.197037 219.439407v438.840889H0v219.439408A146.280296 146.280296 0 0 0 146.280296 1024h731.439408A146.280296 146.280296 0 0 0 1024 877.719704v-219.439408h-73.159111z m-73.121185-512v512h-73.159111v-512h73.159111z m-146.280297 0v512h-73.159111v-512h73.159111zM146.280296 249.704296l30.302815-30.264889h115.977482V103.424l30.302814-30.264889h262.295704-0.455111v585.121185H146.280296V249.704296z m512 628.015408H365.719704v-73.159111h292.560592v73.159111z" p-id="14347"></path></svg>