<?xml version="1.0" standalone="no"?><!DOCTYPE svg PUBLIC "-//W3C//DTD SVG 1.1//EN" "http://www.w3.org/Graphics/SVG/1.1/DTD/svg11.dtd"><svg t="1595488378858" class="icon" viewBox="0 0 1024 1024" version="1.1" xmlns="http://www.w3.org/2000/svg" p-id="6308" xmlns:xlink="http://www.w3.org/1999/xlink" width="600" height="600"><defs><style type="text/css"></style></defs><path d="M832 160h-64v-52c0-24.2-19.8-44-44-44h-40c-24.2 0-44 19.8-44 44v52H384v-52c0-24.2-19.8-44-44-44h-40c-24.2 0-44 19.8-44 44v52h-64c-35.2 0-64 28.8-64 64v640c0 35.2 28.8 64 64 64h640c35.2 0 64-28.8 64-64V224c0-35.2-28.8-64-64-64z m-60.1 287.6L478.7 740.7c-5.1 5.1-12.8 6-18.8 2.8-1.5-0.7-2.9-1.7-4.1-2.9L252.1 536.9c-6.2-6.2-6.2-16.4 0-22.6l45.3-45.3c6.2-6.2 16.4-6.2 22.6 0l147.3 147.3L704 379.7c6.2-6.2 16.4-6.2 22.6 0l45.3 45.3c6.2 6.1 6.2 16.3 0 22.6z" fill="" p-id="6309"></path></svg>